<svg version="1.1" xmlns="http://www.w3.org/2000/svg" viewBox="0 0 860.4646362838866 454.11189595735436" width="860.4646362838866" height="454.11189595735436">
  <!-- svg-source:excalidraw -->
  
  <defs>
    <style class="style-fonts">
      @font-face {
        font-family: "Virgil";
        src: url("https://excalidraw.com/Virgil.woff2");
      }
      @font-face {
        font-family: "Cascadia";
        src: url("https://excalidraw.com/Cascadia.woff2");
      }
      @font-face {
        font-family: "Assistant";
        src: url("https://excalidraw.com/Assistant-Regular.woff2");
      }
    </style>
    
  </defs>
  <rect x="0" y="0" width="860.4646362838866" height="454.11189595735436" fill="#ffffff"></rect><g stroke-linecap="round" transform="translate(139.26456304169915 52.986146476129534) rotate(0 355.60003662109375 195.56287474061241)"><path d="M32 0 C285.83 1.73, 540.3 1.19, 679.2 0 M32 0 C235.27 0.98, 439.28 0.7, 679.2 0 M679.2 0 C701.25 0.85, 712.05 11.43, 711.2 32 M679.2 0 C701.03 -1.67, 711.89 11.99, 711.2 32 M711.2 32 C711.76 118.44, 710.9 206.85, 711.2 359.13 M711.2 32 C711.73 116.59, 712.06 201.49, 711.2 359.13 M711.2 359.13 C710.53 380.13, 702 389.25, 679.2 391.13 M711.2 359.13 C713.33 380.96, 702.52 391.82, 679.2 391.13 M679.2 391.13 C492.57 388.41, 305.28 388.11, 32 391.13 M679.2 391.13 C445.4 390.88, 210.52 390.82, 32 391.13 M32 391.13 C12.36 392.43, 1.57 380.87, 0 359.13 M32 391.13 C8.4 389.81, -0.8 381.47, 0 359.13 M0 359.13 C0.76 266.65, 1.93 174, 0 32 M0 359.13 C1.16 289.67, 0.83 219.43, 0 32 M0 32 C1.74 11.16, 10.78 -0.99, 32 0 M0 32 C0.65 11, 12.03 2.15, 32 0" stroke="#1e1e1e" stroke-width="1" fill="none"></path></g><g stroke-linecap="round" transform="translate(103.43601310096415 165.786738719504) rotate(0 36 30.79999542236328)"><path d="M38.46 0.29 C44.93 0.08, 53.25 2.91, 58.52 6.79 C63.8 10.68, 68.28 17.74, 70.1 23.61 C71.92 29.48, 71.85 36.57, 69.44 42.01 C67.02 47.45, 61.66 53.18, 55.62 56.28 C49.59 59.37, 40.31 60.77, 33.24 60.57 C26.17 60.37, 18.66 58.72, 13.2 55.08 C7.74 51.43, 2.32 44.87, 0.48 38.71 C-1.37 32.55, -0.54 23.67, 2.13 18.09 C4.79 12.52, 9.54 8, 16.47 5.25 C23.4 2.51, 38.13 1.89, 43.7 1.64 C49.27 1.4, 49.77 3.49, 49.88 3.78 M38.8 0.52 C45.72 0.75, 53.95 4.11, 59.45 7.99 C64.95 11.86, 70.32 17.92, 71.82 23.76 C73.31 29.61, 71.34 37.57, 68.42 43.04 C65.49 48.51, 59.88 53.61, 54.27 56.59 C48.66 59.58, 41.52 61.56, 34.75 60.95 C27.97 60.35, 19.08 56.82, 13.62 52.96 C8.15 49.11, 3.68 43.24, 1.95 37.83 C0.22 32.42, 0.6 26.02, 3.23 20.51 C5.86 14.99, 11.62 8.04, 17.71 4.74 C23.79 1.45, 36.14 1.54, 39.73 0.72 C43.33 -0.11, 39.42 -0.52, 39.26 -0.2" stroke="none" stroke-width="0" fill="#ffffff"></path><path d="M48.9 2.31 C55.31 3.92, 60.83 8.44, 64.72 13.47 C68.61 18.5, 72.36 26.55, 72.24 32.49 C72.12 38.44, 68.48 44.65, 64.01 49.15 C59.55 53.65, 52 57.58, 45.44 59.48 C38.87 61.38, 31.09 62.46, 24.61 60.54 C18.14 58.62, 10.85 53.05, 6.61 47.97 C2.36 42.89, -0.92 36.04, -0.86 30.05 C-0.8 24.06, 2.5 16.78, 6.95 12.02 C11.39 7.26, 18.33 2.99, 25.81 1.51 C33.29 0.03, 46.97 2.61, 51.84 3.15 C56.72 3.68, 55.34 4.35, 55.07 4.75 M38.49 -0.03 C45.22 -0.47, 51.62 1.4, 57.21 5.08 C62.79 8.75, 69.77 16.07, 72 22.02 C74.23 27.98, 73.2 35.2, 70.59 40.81 C67.97 46.42, 62.06 52.44, 56.33 55.68 C50.59 58.93, 43.43 60.52, 36.2 60.28 C28.97 60.04, 18.97 57.72, 12.94 54.24 C6.9 50.77, 1.54 45.08, -0.03 39.43 C-1.6 33.78, 1.05 25.87, 3.51 20.35 C5.98 14.83, 9.16 9.53, 14.77 6.31 C20.38 3.08, 33.39 1.73, 37.18 1.01 C40.96 0.3, 37.3 1.81, 37.47 2.01" stroke="#1e1e1e" stroke-width="1" fill="none"></path></g><g transform="translate(177.66449590302727 10) rotate(0 32.795989990234375 22.5)"><text x="0" y="0" font-family="Virgil, Segoe UI Emoji" font-size="36px" fill="#1e1e1e" text-anchor="start" style="white-space: pre;" direction="ltr" dominant-baseline="text-before-edge">VPC</text></g><g stroke-linecap="round" transform="translate(221.0035655868594 113.35152560129018) rotate(0 99.19999694824219 36.79997253417969)"><path d="M18.4 0 C82.83 -1, 144.26 -1.23, 180 0 M18.4 0 C54.73 0.88, 89.31 2.13, 180 0 M180 0 C191.2 1.93, 197.5 6.29, 198.4 18.4 M180 0 C193.18 0.35, 199.55 4.65, 198.4 18.4 M198.4 18.4 C196.43 27.2, 198.66 37.03, 198.4 55.2 M198.4 18.4 C198.35 26.73, 197.67 35.3, 198.4 55.2 M198.4 55.2 C196.44 68.02, 192.98 74.13, 180 73.6 M198.4 55.2 C196.56 68.19, 190.6 74.23, 180 73.6 M180 73.6 C124.9 75.55, 68.16 74.9, 18.4 73.6 M180 73.6 C137.47 73.27, 96.49 72.39, 18.4 73.6 M18.4 73.6 C8.1 72.96, 1.58 68.43, 0 55.2 M18.4 73.6 C6.55 73.81, -0.77 66.23, 0 55.2 M0 55.2 C-0.16 42.87, 0.23 30.12, 0 18.4 M0 55.2 C-0.72 42.22, -0.09 31.18, 0 18.4 M0 18.4 C-0.93 6.15, 5.26 1.39, 18.4 0 M0 18.4 C-0.57 7.01, 8.39 1.34, 18.4 0" stroke="#1e1e1e" stroke-width="1" fill="none"></path></g><g stroke-linecap="round" transform="translate(224.60364798432033 202.151528653048) rotate(0 99.19999694824219 36.79997253417969)"><path d="M18.4 0 C59.54 1.4, 100.15 -2.16, 180 0 M18.4 0 C67.61 0.46, 115.21 0.39, 180 0 M180 0 C191.37 0.78, 200.35 6.24, 198.4 18.4 M180 0 C191.25 0.11, 198.95 5.35, 198.4 18.4 M198.4 18.4 C199.94 27.41, 197.84 35.04, 198.4 55.2 M198.4 18.4 C198.2 33.9, 197.85 47.9, 198.4 55.2 M198.4 55.2 C197.23 65.54, 192.56 75.32, 180 73.6 M198.4 55.2 C200.15 65.91, 192.4 75.34, 180 73.6 M180 73.6 C117.01 74.11, 55.71 71.81, 18.4 73.6 M180 73.6 C116.16 72.49, 52.11 72.95, 18.4 73.6 M18.4 73.6 C6.84 71.89, -0.46 67.41, 0 55.2 M18.4 73.6 C6.14 74.76, -1.71 66.49, 0 55.2 M0 55.2 C-0.49 42.42, 0.9 29.97, 0 18.4 M0 55.2 C0.4 41.67, 0.15 26.99, 0 18.4 M0 18.4 C0.85 4.84, 6.25 -0.95, 18.4 0 M0 18.4 C1.89 3.96, 5.93 1.63, 18.4 0" stroke="#1e1e1e" stroke-width="1" fill="none"></path></g><g stroke-linecap="round"><g transform="translate(117.36380422133584 176.69601801112276) rotate(0 22.27900328392201 20.88656059893276)"><path d="M0.16 -0.15 C7.57 7.02, 36.7 35.87, 44.12 42.74 M-1.22 -1.28 C6.02 5.61, 35.4 33.91, 42.94 41.12" stroke="#1e1e1e" stroke-width="1" fill="none"></path></g></g><mask></mask><g stroke-linecap="round"><g transform="translate(120.14868959131434 221.95023264214365) rotate(0 18.79790985076653 -25.76009671707743)"><path d="M0.23 0.23 C6.5 -8.53, 31.91 -42.89, 38.02 -51.37 M-1.1 -0.69 C5.01 -8.73, 30.55 -41.12, 37.3 -49.76" stroke="#1e1e1e" stroke-width="1" fill="none"></path></g></g><mask></mask><g transform="translate(10 167.89049846057333) rotate(0 43.129974365234375 25)"><text x="0" y="0" font-family="Virgil, Segoe UI Emoji" font-size="20px" fill="#1e1e1e" text-anchor="start" style="white-space: pre;" direction="ltr" dominant-baseline="text-before-edge">Internet</text><text x="0" y="25" font-family="Virgil, Segoe UI Emoji" font-size="20px" fill="#1e1e1e" text-anchor="start" style="white-space: pre;" direction="ltr" dominant-baseline="text-before-edge">Gateway</text></g><g transform="translate(240.62644369684608 61.65101918933692) rotate(0 71.58995819091797 25)"><text x="71.58995819091797" y="0" font-family="Virgil, Segoe UI Emoji" font-size="20px" fill="#1e1e1e" text-anchor="middle" style="white-space: pre;" direction="ltr" dominant-baseline="text-before-edge">Load Balancer</text><text x="71.58995819091797" y="25" font-family="Virgil, Segoe UI Emoji" font-size="20px" fill="#1e1e1e" text-anchor="middle" style="white-space: pre;" direction="ltr" dominant-baseline="text-before-edge">Subnets</text></g><g stroke-linecap="round"><g transform="translate(167.9940395923495 174.08156983706954) rotate(0 26.217385555856822 -10.686433443626242)"><path d="M0.06 -1.1 C8.66 -4.3, 42.72 -17.01, 51.48 -20.42 M-1.36 0.94 C7.6 -2.48, 44.81 -18.49, 53.68 -22.05" stroke="#1e1e1e" stroke-width="1" fill="none"></path></g></g><mask></mask><g stroke-linecap="round"><g transform="translate(173.12351460032744 208.56313493765174) rotate(0 25.932418345681015 14.961006821076694)"><path d="M0.59 -0.88 C9.17 4.02, 43.08 24.17, 51.78 29.34 M-0.56 1.27 C7.83 6.34, 41.95 25.53, 50.79 30.57" stroke="#1e1e1e" stroke-width="1" fill="none"></path></g></g><mask></mask><g stroke-linecap="round" transform="translate(231.37003430269863 318.6463863878164) rotate(0 102.65649889094368 46.85527924548455)"><path d="M23.43 0 C57.15 1.01, 92.53 -1.7, 181.89 0 M23.43 0 C70.64 1.4, 117.77 0.78, 181.89 0 M181.89 0 C196.97 1.43, 207.18 9.44, 205.31 23.43 M181.89 0 C196.82 -1.59, 204.78 5.99, 205.31 23.43 M205.31 23.43 C205.73 33.5, 203.57 42.82, 205.31 70.28 M205.31 23.43 C206.49 42, 205.76 60.88, 205.31 70.28 M205.31 70.28 C206.8 85.11, 197.02 94.06, 181.89 93.71 M205.31 70.28 C206.85 84.42, 197.62 94.19, 181.89 93.71 M181.89 93.71 C142.14 93.21, 103.21 93, 23.43 93.71 M181.89 93.71 C127.55 93.69, 73.69 92.56, 23.43 93.71 M23.43 93.71 C6.05 92.24, -0.27 84.14, 0 70.28 M23.43 93.71 C7.88 92.71, 1.38 83.95, 0 70.28 M0 70.28 C0.36 55.67, -0.98 37.93, 0 23.43 M0 70.28 C0.42 57.09, 1.03 44.03, 0 23.43 M0 23.43 C-0.47 9.8, 6.42 -1.11, 23.43 0 M0 23.43 C0.4 7.92, 6.29 0.65, 23.43 0" stroke="#1e1e1e" stroke-width="1" fill="none"></path></g><g transform="translate(266.3043218255706 288.00742586009187) rotate(0 57.929954528808594 12.5)"><text x="57.929954528808594" y="0" font-family="Virgil, Segoe UI Emoji" font-size="20px" fill="#1e1e1e" text-anchor="middle" style="white-space: pre;" direction="ltr" dominant-baseline="text-before-edge">EC2 Subnet</text></g><g stroke-linecap="round"><g transform="translate(148.73803122649178 227.06604411248622) rotate(0 40.535401988334 71.01550925220567)"><path d="M0.82 0.03 C14.32 23.64, 66.95 118.03, 80.41 141.88 M-0.21 -1.01 C13.74 22.78, 69.23 119.61, 82.78 143.34" stroke="#1e1e1e" stroke-width="1" fill="none"></path></g></g><mask></mask><g stroke-linecap="round" transform="translate(253.69002981684525 351.5003298129052) rotate(0 24.824007727249864 22.624398146487124)"><path d="M31.25 5.75 C33.93 10.29, 36.67 12.06, 43.4 17.25 C50.55 22.99, 51.75 23.39, 43.4 28.75 C38.95 33.81, 35.26 37.51, 31.25 39.5 C26.68 48.55, 23.85 43.7, 18.75 39.5 C13.36 38.17, 11.78 32.82, 6.25 28.75 C2.94 22.43, -3.48 24.87, 6.25 17.25 C11.58 13.18, 14.03 11.2, 18.75 5.75 C23.32 -0.23, 27.44 -2.72, 31.25 5.75" stroke="none" stroke-width="0" fill="#ffc9c9"></path><path d="M31.25 5.75 C36.27 9.51, 36.89 11.07, 43.4 17.25 M31.25 5.75 C34.87 9.03, 37.4 10.93, 43.4 17.25 M43.4 17.25 C49.29 22.44, 48.54 23.84, 43.4 28.75 M43.4 17.25 C51.16 24.02, 49.02 23.36, 43.4 28.75 M43.4 28.75 C41.05 31.86, 35.75 34.99, 31.25 39.5 M43.4 28.75 C38.83 32.07, 35.73 36.11, 31.25 39.5 M31.25 39.5 C26.32 45.99, 24 45.93, 18.75 39.5 M31.25 39.5 C25.02 45.36, 27.02 43.77, 18.75 39.5 M18.75 39.5 C15.06 35.96, 11.23 31.76, 6.25 28.75 M18.75 39.5 C15.19 36.11, 11.65 34.51, 6.25 28.75 M6.25 28.75 C-1.96 25, 0.64 23.73, 6.25 17.25 M6.25 28.75 C-0.53 21.78, 0.05 20.93, 6.25 17.25 M6.25 17.25 C11.51 14, 15.56 11.17, 18.75 5.75 M6.25 17.25 C9.44 14.35, 12.09 12.02, 18.75 5.75 M18.75 5.75 C24.66 -1.81, 23.11 0.85, 31.25 5.75 M18.75 5.75 C26.1 2.04, 25.68 -0.86, 31.25 5.75" stroke="#1e1e1e" stroke-width="1" fill="none"></path></g><g stroke-linecap="round" transform="translate(349.2155754295096 346.4726644704101) rotate(0 26.709322296472806 10.055330684990167)"><path d="M5.03 0 C21.09 1.57, 39.66 1.27, 48.39 0 C52.66 1.48, 54 2.74, 53.42 5.03 C51.6 5.62, 55.03 10.83, 53.42 15.08 C56.17 19.88, 53.61 22.38, 48.39 20.11 C34.9 17.5, 18.59 16.15, 5.03 20.11 C1.04 19.98, 0.53 15.09, 0 15.08 C-1.12 13.51, 0.37 8.99, 0 5.03 C2.15 1.65, -0.52 -0.12, 5.03 0" stroke="none" stroke-width="0" fill="#b2f2bb"></path><path d="M5.03 0 C22.58 -0.23, 35.65 -0.19, 48.39 0 M5.03 0 C15.36 -0.65, 27.07 0.92, 48.39 0 M48.39 0 C50.78 -1.86, 54.06 0.41, 53.42 5.03 M48.39 0 C53.61 -1.33, 54.95 3.93, 53.42 5.03 M53.42 5.03 C53.91 8.04, 52.96 10.2, 53.42 15.08 M53.42 5.03 C53.24 8.47, 53.55 11.14, 53.42 15.08 M53.42 15.08 C54.53 19.44, 51.36 21.53, 48.39 20.11 M53.42 15.08 C53.18 17.6, 49.93 18.28, 48.39 20.11 M48.39 20.11 C32.73 20.71, 13.68 19.93, 5.03 20.11 M48.39 20.11 C33.46 19.61, 20.21 19.65, 5.03 20.11 M5.03 20.11 C2.19 20.48, -0.02 18.83, 0 15.08 M5.03 20.11 C0.55 17.87, -1.1 18.92, 0 15.08 M0 15.08 C-0.29 11.42, -0.03 8.38, 0 5.03 M0 15.08 C-0.36 12.06, -0.03 8.36, 0 5.03 M0 5.03 C-1.86 3.55, 0.31 0.54, 5.03 0 M0 5.03 C-1.53 0.48, 0.92 -1.94, 5.03 0" stroke="#1e1e1e" stroke-width="1" fill="none"></path></g><g transform="translate(322.3145952944159 321.32060098142824) rotate(0 53.29595947265625 10)"><text x="53.29595947265625" y="0" font-family="Virgil, Segoe UI Emoji" font-size="16px" fill="#1e1e1e" text-anchor="middle" style="white-space: pre;" direction="ltr" dominant-baseline="text-before-edge">App instances</text></g><g transform="translate(263.93242364172943 330.13282402835694) rotate(0 14.895980834960938 10)"><text x="14.895980834960938" y="0" font-family="Virgil, Segoe UI Emoji" font-size="16px" fill="#1e1e1e" text-anchor="middle" style="white-space: pre;" direction="ltr" dominant-baseline="text-before-edge">API</text></g><g stroke-linecap="round" transform="translate(256.20400633020324 143.48138349088526) rotate(0 63.15980013482107 50.59069671279633)"><path d="M25.3 0 C56.16 -0.83, 84.74 -0.15, 101.02 0 C120.38 0.12, 128.8 11.56, 126.32 25.3 C122.57 35.39, 126.89 51.18, 126.32 75.89 C125.05 92.1, 116.72 99.3, 101.02 101.18 C76.67 99.03, 61.54 102.12, 25.3 101.18 C8.61 100.2, -0.63 94.95, 0 75.89 C-0.89 60.05, -4.27 49.17, 0 25.3 C2.94 5.78, 8.63 -3.05, 25.3 0" stroke="none" stroke-width="0" fill="#ffec99"></path><path d="M25.3 0 C50.14 -1.49, 71.78 -1.28, 101.02 0 M25.3 0 C44.29 0.1, 63.97 -0.95, 101.02 0 M101.02 0 C119.68 1.89, 125.31 10.43, 126.32 25.3 M101.02 0 C115.67 -1.61, 125.87 9.69, 126.32 25.3 M126.32 25.3 C128.53 40.45, 126.56 52.2, 126.32 75.89 M126.32 25.3 C125.67 39.01, 125.9 52.98, 126.32 75.89 M126.32 75.89 C125 93.03, 118.49 100.24, 101.02 101.18 M126.32 75.89 C127.11 92.14, 118.3 102.58, 101.02 101.18 M101.02 101.18 C74.61 103.13, 48.51 101.35, 25.3 101.18 M101.02 101.18 C85.27 100.12, 71.59 100.15, 25.3 101.18 M25.3 101.18 C6.62 101.57, -1.94 94.09, 0 75.89 M25.3 101.18 C8.61 99.24, 1.89 93.29, 0 75.89 M0 75.89 C-0.12 62.69, 1.74 44.58, 0 25.3 M0 75.89 C-0.67 64.31, -0.52 52.14, 0 25.3 M0 25.3 C0.43 6.86, 7.68 -1.06, 25.3 0 M0 25.3 C-0.27 10.2, 10.45 -0.05, 25.3 0" stroke="#1e1e1e" stroke-width="1" fill="none"></path></g><g transform="translate(263.6629492611977 184.95950269804348) rotate(0 57.27197265625 10)"><text x="57.27197265625" y="0" font-family="Virgil, Segoe UI Emoji" font-size="16px" fill="#1e1e1e" text-anchor="middle" style="white-space: pre;" direction="ltr" dominant-baseline="text-before-edge">Load Balancer</text></g><g stroke-linecap="round"><g transform="translate(383.780498961784 193.75786910003967) rotate(0 51.21915488060819 0.9426932451391394)"><path d="M0.54 0.23 C17.65 0.27, 85.53 0.52, 102.56 0.82 M-0.63 -0.69 C16.34 -0.59, 84.56 1.12, 101.68 1.8" stroke="#1e1e1e" stroke-width="1" fill="none"></path></g></g><mask></mask><g stroke-linecap="round"><g transform="translate(483.70497605175296 195.64325559031795) rotate(0 -1.5711394261084024 87.04112660377439)"><path d="M0.28 0.31 C-0.28 29.38, -2.53 145.4, -3.09 174.32 M-1.03 -0.57 C-1.77 28.12, -3.54 143.06, -4.01 172.32" stroke="#1e1e1e" stroke-width="1" fill="none"></path></g></g><mask></mask><g stroke-linecap="round" transform="translate(350.78654703982215 374.91022575139164) rotate(0 25.452429934534166 9.741083620820291)"><path d="M4.87 0 C14.41 1.85, 28.71 -1.57, 46.03 0 C46.97 2.23, 53.32 3.6, 50.9 4.87 C51.4 7.8, 52.56 11.1, 50.9 14.61 C51.56 14.75, 51.8 17.61, 46.03 19.48 C32.81 21.97, 21.83 22.51, 4.87 19.48 C4.86 21.31, 1.66 21.13, 0 14.61 C1.26 13.16, 0.33 9.83, 0 4.87 C2.46 -1.65, -1.61 -2.23, 4.87 0" stroke="none" stroke-width="0" fill="#b2f2bb"></path><path d="M4.87 0 C12.44 1.3, 22.33 -0.58, 46.03 0 M4.87 0 C17.82 0.43, 29.12 -1.01, 46.03 0 M46.03 0 C47.7 1.31, 52.18 3.14, 50.9 4.87 M46.03 0 C47.95 -2.11, 52.58 1.94, 50.9 4.87 M50.9 4.87 C51.65 7.39, 51.22 9.45, 50.9 14.61 M50.9 4.87 C50.53 8.32, 51.02 11.79, 50.9 14.61 M50.9 14.61 C50.24 18.45, 49.5 18.5, 46.03 19.48 M50.9 14.61 C51.19 19.93, 51.42 21.47, 46.03 19.48 M46.03 19.48 C32.08 21.68, 19.11 18.13, 4.87 19.48 M46.03 19.48 C36.59 20.23, 25.68 20.52, 4.87 19.48 M4.87 19.48 C-0.19 18.02, 1.35 16.64, 0 14.61 M4.87 19.48 C2.35 18.04, 1.92 19.93, 0 14.61 M0 14.61 C0.64 12.28, 0.37 9.16, 0 4.87 M0 14.61 C-0.4 11.58, -0.29 7.87, 0 4.87 M0 4.87 C-1.58 2.5, 3.42 -1.79, 4.87 0 M0 4.87 C1.35 3.51, 2.2 0.04, 4.87 0" stroke="#1e1e1e" stroke-width="1" fill="none"></path></g><g stroke-linecap="round"><g transform="translate(480.32667523793907 369.0440125467685) rotate(0 -29.194898016356888 0.15895548772255097)"><path d="M0.7 0.77 C-9.06 0.75, -47.75 0.15, -57.51 -0.09 M-0.39 0.13 C-10.33 0.27, -48.33 1.23, -57.99 1.23" stroke="#1e1e1e" stroke-width="1" fill="none"></path></g></g><mask></mask><g stroke-linecap="round"><g transform="translate(422.6786782186929 369.2559505020936) rotate(0 -9.166458053822794 -5.775396195445069)"><path d="M0.14 0.25 C-2.95 -1.74, -15.34 -9.99, -18.43 -11.96 M-0.45 -0.09 C-3.63 -2.03, -15.85 -9.66, -18.92 -11.48" stroke="#1e1e1e" stroke-width="1" fill="none"></path></g><g transform="translate(422.6786782186929 369.2559505020936) rotate(0 -9.166458053822794 -5.775396195445069)"><path d="M-8.3 -9.34 C-11.39 -10.09, -15.39 -10.77, -18.92 -11.48 M-8.3 -9.34 C-11.72 -9.89, -14.35 -10.54, -18.92 -11.48" stroke="#1e1e1e" stroke-width="1" fill="none"></path></g><g transform="translate(422.6786782186929 369.2559505020936) rotate(0 -9.166458053822794 -5.775396195445069)"><path d="M-12.16 -3.01 C-14.04 -5.76, -16.82 -8.43, -18.92 -11.48 M-12.16 -3.01 C-14.46 -5.43, -15.94 -7.96, -18.92 -11.48" stroke="#1e1e1e" stroke-width="1" fill="none"></path></g></g><mask></mask><g stroke-linecap="round"><g transform="translate(422.57270924103034 370.31565644854913) rotate(0 -9.431384540436682 7.8948121308134205)"><path d="M-0.38 -0.36 C-3.58 2.34, -15.71 13.87, -18.78 16.73 M1.62 -1.59 C-1.76 0.73, -16.16 12.34, -19.68 15.1" stroke="#1e1e1e" stroke-width="1" fill="none"></path></g><g transform="translate(422.57270924103034 370.31565644854913) rotate(0 -9.431384540436682 7.8948121308134205)"><path d="M-13.25 4.62 C-15.71 8.16, -16.51 11.64, -19.68 15.1 M-13.25 4.62 C-15.49 8.79, -18.37 12.6, -19.68 15.1" stroke="#1e1e1e" stroke-width="1" fill="none"></path></g><g transform="translate(422.57270924103034 370.31565644854913) rotate(0 -9.431384540436682 7.8948121308134205)"><path d="M-8.02 11.2 C-12.24 12.54, -14.77 13.84, -19.68 15.1 M-8.02 11.2 C-12.29 12.84, -17.18 14.12, -19.68 15.1" stroke="#1e1e1e" stroke-width="1" fill="none"></path></g></g><mask></mask><g stroke-linecap="round" transform="translate(584.8561176734173 188.94391240641357) rotate(0 99.19999694824224 36.79997253417969)"><path d="M18.4 0 C77.67 -0.32, 136 -3.09, 180 0 M18.4 0 C75.68 -0.77, 132.64 -0.64, 180 0 M180 0 C193.7 0.37, 199.76 6.6, 198.4 18.4 M180 0 C194.04 2.11, 200.06 5.6, 198.4 18.4 M198.4 18.4 C200.17 28.99, 197.89 41.48, 198.4 55.2 M198.4 18.4 C197.1 28.9, 197.47 39.73, 198.4 55.2 M198.4 55.2 C197.83 68.23, 191.68 72.94, 180 73.6 M198.4 55.2 C197.01 66.08, 190.41 74.37, 180 73.6 M180 73.6 C130.98 75.49, 84.79 75.31, 18.4 73.6 M180 73.6 C115.96 73.31, 52.65 73.89, 18.4 73.6 M18.4 73.6 C7.11 71.72, -0.16 65.82, 0 55.2 M18.4 73.6 C5.6 74.44, 1.52 67.62, 0 55.2 M0 55.2 C1.26 41.21, -1.7 30.47, 0 18.4 M0 55.2 C1.21 47.45, -0.62 38.61, 0 18.4 M0 18.4 C-1.94 7.18, 5.69 -1.51, 18.4 0 M0 18.4 C-0.04 6.87, 6.29 -1.62, 18.4 0" stroke="#1e1e1e" stroke-width="1" fill="none"></path></g><g stroke-linecap="round" transform="translate(589.8499921537726 281.22847542004615) rotate(0 99.19999694824224 36.79997253417969)"><path d="M18.4 0 C78.39 -2.62, 138.51 -2.46, 180 0 M18.4 0 C77.13 0.02, 134.92 -0.1, 180 0 M180 0 C193.63 0.46, 199.94 7.97, 198.4 18.4 M180 0 C193.93 -0.53, 198.45 6.77, 198.4 18.4 M198.4 18.4 C198.1 30.16, 198.47 38.5, 198.4 55.2 M198.4 18.4 C197.43 30.1, 197.75 41.93, 198.4 55.2 M198.4 55.2 C197.81 66.8, 191.06 72.4, 180 73.6 M198.4 55.2 C196.55 68.23, 192.12 72.49, 180 73.6 M180 73.6 C115.67 74.03, 53.82 73.67, 18.4 73.6 M180 73.6 C130.9 73.28, 82.48 72.1, 18.4 73.6 M18.4 73.6 C5.97 71.95, -0.47 68.2, 0 55.2 M18.4 73.6 C7.66 73.76, 0.84 68.2, 0 55.2 M0 55.2 C-1.83 44.88, -1.59 32.8, 0 18.4 M0 55.2 C-1.26 41.62, -1.3 27.44, 0 18.4 M0 18.4 C-0.44 4.62, 6.1 0.64, 18.4 0 M0 18.4 C0.16 4.51, 6.76 1.47, 18.4 0" stroke="#1e1e1e" stroke-width="1" fill="none"></path></g><g transform="translate(620.0149157850586 148.39392875177282) rotate(0 63.719947814941406 12.5)"><text x="63.719947814941406" y="0" font-family="Virgil, Segoe UI Emoji" font-size="20px" fill="#1e1e1e" text-anchor="middle" style="white-space: pre;" direction="ltr" dominant-baseline="text-before-edge">RDS Subnets</text></g><g stroke-linecap="round"><g transform="translate(278.9098171479892 396.45831916567) rotate(0 -0.3484480207235947 17.422666884976707)"><path d="M-0.41 0.19 C-0.41 6.16, -0.32 29.69, -0.28 35.39 M0.39 -0.2 C0.37 5.68, -0.39 28.88, -0.49 34.71" stroke="#1e1e1e" stroke-width="1" fill="none"></path></g></g><mask></mask><g stroke-linecap="round"><g transform="translate(278.9098171479892 430.60675689417644) rotate(0 125.09475355110891 -0.6968960414471894)"><path d="M-0.21 -0.51 C41.57 -0.86, 208.27 -2.07, 250 -2.15 M-1.79 -1.82 C39.89 -2.03, 207.09 -0.8, 248.96 -1" stroke="#1e1e1e" stroke-width="1" fill="none"></path></g></g><mask></mask><g stroke-linecap="round"><g transform="translate(527.7055321673128 429.90986085272925) rotate(0 1.5303895132838647 -79.55587160393827)"><path d="M-0.62 0.26 C-0.42 -26.17, 1.56 -132.78, 1.97 -159.15 M1.25 -0.65 C1.74 -26.82, 3.63 -131.12, 4.11 -157.63" stroke="#1e1e1e" stroke-width="1" fill="none"></path></g></g><mask></mask><g stroke-linecap="round" transform="translate(612.9929993053147 223.53814695011738) rotate(0 73.23895893825818 49.47268294943365)"><path d="M24.74 0 C53.16 3.03, 81.06 2.74, 121.74 0 C138.51 0.98, 146.96 11.09, 146.48 24.74 C143.12 38.06, 145.88 53.06, 146.48 74.21 C143.48 90, 136.66 100.42, 121.74 98.95 C98.65 96.57, 79.11 97.57, 24.74 98.95 C10.1 97.27, 3.51 89.03, 0 74.21 C-0.13 62.53, 0.75 47.55, 0 24.74 C1.1 5.95, 9.69 -1.37, 24.74 0" stroke="none" stroke-width="0" fill="#a5d8ff"></path><path d="M24.74 0 C46.44 1.11, 65 -1.53, 121.74 0 M24.74 0 C51.76 0.73, 79.2 1.49, 121.74 0 M121.74 0 C136.65 1.51, 145.38 8.42, 146.48 24.74 M121.74 0 C137.44 -1.48, 144.83 8.57, 146.48 24.74 M146.48 24.74 C145.87 41.86, 145.54 60.19, 146.48 74.21 M146.48 24.74 C147.06 43.54, 146.97 63.41, 146.48 74.21 M146.48 74.21 C145.99 92.23, 137.42 97.32, 121.74 98.95 M146.48 74.21 C145.25 89.43, 137.79 96.77, 121.74 98.95 M121.74 98.95 C86.53 101.48, 54.98 99.47, 24.74 98.95 M121.74 98.95 C82.8 98.9, 45.85 99.35, 24.74 98.95 M24.74 98.95 C8.09 100.31, -1.29 92.15, 0 74.21 M24.74 98.95 C7.01 101.03, -1.78 90.93, 0 74.21 M0 74.21 C-1.44 59.96, 0.03 47.32, 0 24.74 M0 74.21 C0.42 63.93, 0.12 53.35, 0 24.74 M0 24.74 C-1.72 6.65, 9.12 1.58, 24.74 0 M0 24.74 C1.88 5.99, 6.77 -1.01, 24.74 0" stroke="#1e1e1e" stroke-width="1" fill="none"></path></g><g transform="translate(657.3079699012877 255.51082989955103) rotate(0 28.923988342285156 17.5)"><text x="28.923988342285156" y="0" font-family="Virgil, Segoe UI Emoji" font-size="28px" fill="#1e1e1e" text-anchor="middle" style="white-space: pre;" direction="ltr" dominant-baseline="text-before-edge">RDS</text></g><g stroke-linecap="round"><g transform="translate(527.3671373734155 273.01081139726716) rotate(0 33.80107025411331 -0.6340274862117212)"><path d="M0.87 -1.18 C11.79 -1.26, 55.33 -1.15, 66.53 -1.2 M-0.13 0.81 C11.06 1.01, 57.4 0.56, 68.68 0.37" stroke="#1e1e1e" stroke-width="1" fill="none"></path></g><g transform="translate(527.3671373734155 273.01081139726716) rotate(0 33.80107025411331 -0.6340274862117212)"><path d="M40.62 10.97 C49.47 4.92, 62.33 3.41, 68.68 0.37 M40.62 10.97 C49.46 7.69, 57.18 5.27, 68.68 0.37" stroke="#1e1e1e" stroke-width="1" fill="none"></path></g><g transform="translate(527.3671373734155 273.01081139726716) rotate(0 33.80107025411331 -0.6340274862117212)"><path d="M40.37 -9.55 C49.19 -7.73, 62.14 -1.37, 68.68 0.37 M40.37 -9.55 C49.13 -7.07, 56.92 -3.73, 68.68 0.37" stroke="#1e1e1e" stroke-width="1" fill="none"></path></g></g><mask></mask></svg>